# xmcd
#
# Track frame offsets: 
#        150
#        17628
#        33505
#        51094
#        70569
#        88306
#        106991
#        125964
#        143401
#        159174
#        173691
#        191637
#        209988
#
# Disc length: 3059 seconds
#
# Revision: 6
# Processed by: cddbd v1.5.2PL0 Copyright (c) Steve Scherf et al.
# Submitted via: ExactAudioCopyFreeDBPlugin 1.0
#
DISCID=b50bf10d
DTITLE=Joe Cocker - Fire It Up
DYEAR=2012
DGENRE=Rock, Blues Rock
TTITLE0=Fire It Up
TTITLE1=I'll Be Your Doctor
TTITLE2=You Love Me Back
TTITLE3=I Come In Peace
TTITLE4=You Don't Need A Million Dollars
TTITLE5=Eye On The Prize
TTITLE6=Younger
TTITLE7=You Don't Know What You're Doing To Me
TTITLE8=The Letting Go
TTITLE9=I'll Walk In The Sunshine Again
TTITLE10=Weight Of The World
TTITLE11=The Last Road
TTITLE12=Walk Through The World With Me
EXTD=CD 2012 - Premium Edition\nSony Music 8 87254 96432 2
EXTT0=
EXTT1=
EXTT2=
EXTT3=
EXTT4=
EXTT5=
EXTT6=
EXTT7=
EXTT8=
EXTT9=
EXTT10=
EXTT11=[Bonus Track]
EXTT12=[Bonus Track]
PLAYORDER=
